<svg xmlns="http://www.w3.org/2000/svg" viewBox="140 80 232 270" width="100%" height="100%">
  <g stroke-linejoin="round" stroke-linecap="round">
    <!-- Solid Indigo Hexagon Background -->
    <polygon points="256.0,96.0 359.9,156.0 359.9,276.0 256.0,336.0 152.1,276.0 152.1,156.0" fill="#4f46e5" stroke="#4f46e5" stroke-width="12"/>
    
    <!-- White Inner Facets/Wireframes -->
    <g fill="none" stroke="#ffffff" stroke-width="12">
      <polygon points="256.0,131.0 329.6,173.5 329.6,258.5 256.0,301.0 182.4,258.5 182.4,173.5" />
      <polygon points="256.0,166.0 299.3,191.0 299.3,241.0 256.0,266.0 212.7,241.0 212.7,191.0" />
      <polygon points="256.0,201.0 269.0,208.5 269.0,223.5 256.0,231.0 243.0,223.5 243.0,208.5" fill="#ffffff"/>
      
      <line x1="256.0" y1="96.0" x2="329.6" y2="173.5" />
      <line x1="256.0" y1="131.0" x2="299.3" y2="191.0" />
      <line x1="256.0" y1="166.0" x2="269.0" y2="208.5" />
      <line x1="256.0" y1="96.0" x2="212.7" y2="191.0" opacity="0.8"/>
      
      <line x1="359.9" y1="156.0" x2="329.6" y2="258.5" />
      <line x1="329.6" y1="173.5" x2="299.3" y2="241.0" />
      <line x1="299.3" y1="191.0" x2="269.0" y2="223.5" />
      <line x1="359.9" y1="156.0" x2="256.0" y2="166.0" opacity="0.8"/>
      
      <line x1="359.9" y1="276.0" x2="256.0" y2="301.0" />
      <line x1="329.6" y1="258.5" x2="256.0" y2="266.0" />
      <line x1="299.3" y1="241.0" x2="256.0" y2="231.0" />
      <line x1="359.9" y1="276.0" x2="299.3" y2="191.0" opacity="0.8"/>
      
      <line x1="256.0" y1="336.0" x2="182.4" y2="258.5" />
      <line x1="256.0" y1="301.0" x2="212.7" y2="241.0" />
      <line x1="256.0" y1="266.0" x2="243.0" y2="223.5" />
      <line x1="256.0" y1="336.0" x2="299.3" y2="241.0" opacity="0.8"/>
      
      <line x1="152.1" y1="276.0" x2="182.4" y2="173.5" />
      <line x1="182.4" y1="258.5" x2="212.7" y2="191.0" />
      <line x1="212.7" y1="241.0" x2="243.0" y2="208.5" />
      <line x1="152.1" y1="276.0" x2="256.0" y2="266.0" opacity="0.8"/>
      
      <line x1="152.1" y1="156.0" x2="256.0" y2="131.0" />
      <line x1="182.4" y1="173.5" x2="256.0" y2="166.0" />
      <line x1="212.7" y1="191.0" x2="256.0" y2="201.0" />
      <line x1="152.1" y1="156.0" x2="212.7" y2="241.0" opacity="0.8"/>
    </g>
  </g>
</svg>
