<svg xmlns="http://www.w3.org/2000/svg" viewBox="0 0 512 512" width="100%" height="100%">
  <defs>
    <filter id="shadow" x="-20%" y="-20%" width="140%" height="140%">
      <feDropShadow dx="0" dy="16" stdDeviation="24" flood-color="#4f46e5" flood-opacity="0.45"/>
    </filter>
  </defs>
  
  <rect x="56" y="56" width="400" height="400" rx="104" fill="#4f46e5" filter="url(#shadow)"/>
  
  <g fill="none" stroke="#ffffff" stroke-width="4" stroke-linejoin="round" stroke-linecap="round" opacity="0.95">
    <polygon points="256.0,96.0 359.9,156.0 359.9,276.0 256.0,336.0 152.1,276.0 152.1,156.0" stroke-width="6"/>
    <polygon points="256.0,131.0 329.6,173.5 329.6,258.5 256.0,301.0 182.4,258.5 182.4,173.5" />
    <polygon points="256.0,166.0 299.3,191.0 299.3,241.0 256.0,266.0 212.7,241.0 212.7,191.0" />
    <polygon points="256.0,201.0 269.0,208.5 269.0,223.5 256.0,231.0 243.0,223.5 243.0,208.5" fill="#ffffff"/>
    <line x1="256.0" y1="96.0" x2="329.6" y2="173.5" />
    <line x1="256.0" y1="131.0" x2="299.3" y2="191.0" />
    <line x1="256.0" y1="166.0" x2="269.0" y2="208.5" />
    <line x1="256.0" y1="96.0" x2="212.7" y2="191.0" stroke-width="1.5" opacity="0.4"/>
    <line x1="359.9" y1="156.0" x2="329.6" y2="258.5" />
    <line x1="329.6" y1="173.5" x2="299.3" y2="241.0" />
    <line x1="299.3" y1="191.0" x2="269.0" y2="223.5" />
    <line x1="359.9" y1="156.0" x2="256.0" y2="166.0" stroke-width="1.5" opacity="0.4"/>
    <line x1="359.9" y1="276.0" x2="256.0" y2="301.0" />
    <line x1="329.6" y1="258.5" x2="256.0" y2="266.0" />
    <line x1="299.3" y1="241.0" x2="256.0" y2="231.0" />
    <line x1="359.9" y1="276.0" x2="299.3" y2="191.0" stroke-width="1.5" opacity="0.4"/>
    <line x1="256.0" y1="336.0" x2="182.4" y2="258.5" />
    <line x1="256.0" y1="301.0" x2="212.7" y2="241.0" />
    <line x1="256.0" y1="266.0" x2="243.0" y2="223.5" />
    <line x1="256.0" y1="336.0" x2="299.3" y2="241.0" stroke-width="1.5" opacity="0.4"/>
    <line x1="152.1" y1="276.0" x2="182.4" y2="173.5" />
    <line x1="182.4" y1="258.5" x2="212.7" y2="191.0" />
    <line x1="212.7" y1="241.0" x2="243.0" y2="208.5" />
    <line x1="152.1" y1="276.0" x2="256.0" y2="266.0" stroke-width="1.5" opacity="0.4"/>
    <line x1="152.1" y1="156.0" x2="256.0" y2="131.0" />
    <line x1="182.4" y1="173.5" x2="256.0" y2="166.0" />
    <line x1="212.7" y1="191.0" x2="256.0" y2="201.0" />
    <line x1="152.1" y1="156.0" x2="212.7" y2="241.0" stroke-width="1.5" opacity="0.4"/>
  </g>
  
  <text x="258" y="376" font-family="system-ui, -apple-system, BlinkMacSystemFont, 'Segoe UI', Roboto, sans-serif" font-size="46" font-weight="900" fill="#ffffff" text-anchor="middle" dominant-baseline="middle" letter-spacing="4">KINETIC</text>
</svg>
